<?xml version="1.0" standalone="no"?>
<!DOCTYPE svg PUBLIC "-//W3C//DTD SVG 20010904//EN"
 "http://www.w3.org/TR/2001/REC-SVG-20010904/DTD/svg10.dtd">
<svg version="1.0" xmlns="http://www.w3.org/2000/svg"
 width="1093.000000pt" height="1125.000000pt" viewBox="0 0 1093.000000 1125.000000"
 preserveAspectRatio="xMidYMid meet">

<g transform="translate(0.000000,1125.000000) scale(0.100000,-0.100000)"
fill="#000000" stroke="none">
<path d="M5135 10653 c-497 -21 -1001 -107 -1212 -205 -78 -37 -185 -133 -206
-186 -20 -52 -21 -165 -1 -207 20 -43 143 -162 176 -170 l25 -6 6 -226 c4
-125 7 -462 7 -749 0 -406 -3 -526 -12 -534 -7 -5 -83 -45 -168 -88 -227 -114
-375 -209 -436 -279 -131 -150 -206 -267 -257 -403 -20 -55 -20 -64 -16 -1025
5 -1304 5 -1461 -5 -1522 -6 -36 -5 -57 2 -66 9 -10 13 -323 18 -1113 5 -933
10 -1206 28 -1304 13 -77 135 -288 157 -274 6 3 48 -33 93 -80 46 -47 91 -86
99 -86 9 0 20 -6 24 -13 9 -14 43 -31 56 -28 5 1 11 -8 14 -19 3 -11 9 -17 14
-14 5 2 14 -4 21 -16 7 -11 18 -20 24 -20 6 0 19 -9 29 -20 10 -11 21 -17 25
-15 4 3 19 -4 33 -15 24 -19 67 -39 77 -36 3 0 20 -9 38 -22 17 -13 32 -21 32
-17 0 3 13 -1 30 -10 16 -8 42 -17 57 -19 15 -2 42 -9 58 -15 17 -7 41 -14 55
-16 14 -3 45 -10 70 -16 25 -6 52 -12 60 -13 9 -1 20 -5 25 -8 10 -6 69 -17
120 -24 28 -3 63 -10 75 -14 3 -1 19 -2 35 -2 17 0 51 -6 76 -14 26 -8 51 -14
55 -13 5 1 11 0 14 -1 16 -7 77 -7 91 1 10 5 21 3 28 -4 7 -7 33 -12 59 -12
46 -1 47 -1 53 -37 9 -60 -3 -78 -55 -78 -56 0 -257 26 -396 51 -58 10 -123
21 -145 23 -40 3 -287 66 -336 84 -15 6 -35 21 -45 34 -11 14 -23 26 -29 29
-5 2 -11 13 -12 24 0 11 -1 25 -2 32 -1 6 -11 15 -23 18 -37 11 -191 76 -215
91 -20 13 -23 13 -23 -1 0 -9 -7 -18 -15 -21 -11 -5 -12 -11 -5 -24 7 -13 7
-21 -1 -26 -13 -8 -85 59 -105 99 -32 60 -35 20 -32 -327 l4 -341 28 -54 c15
-30 61 -86 100 -126 154 -151 406 -262 789 -345 125 -27 361 -68 437 -76 19
-2 55 -6 80 -10 25 -4 59 -7 76 -8 17 0 38 -7 47 -14 10 -9 17 -10 22 -2 8 13
52 13 60 0 3 -6 17 -7 31 -4 13 3 31 1 38 -5 10 -9 16 -9 21 -1 5 8 10 8 20 0
10 -8 15 -8 20 0 4 7 21 9 44 5 20 -3 95 -8 166 -10 72 -2 137 -5 145 -6 49
-7 310 2 305 10 -9 16 5 19 130 25 223 12 660 55 715 71 8 3 65 14 125 25 146
26 224 44 320 73 311 94 538 215 615 328 44 65 42 47 40 329 -2 178 -2 192 3
292 3 53 8 101 11 107 4 5 1 13 -5 16 -5 4 -8 13 -5 20 7 19 -20 26 -35 9 -10
-12 -10 -15 1 -12 8 2 15 -4 17 -13 5 -23 -88 -92 -188 -137 -86 -40 -201 -80
-301 -105 -67 -17 -78 -11 -78 46 0 36 -2 39 -22 33 -13 -4 -54 -11 -93 -16
-38 -6 -119 -19 -179 -30 -115 -22 -148 -21 -126 5 7 8 16 12 21 9 5 -3 17 0
28 6 11 5 33 12 48 13 15 2 51 14 78 27 28 13 57 24 66 24 9 1 26 10 38 20 12
11 24 16 28 13 3 -4 21 3 40 14 18 11 33 17 33 14 0 -4 6 -2 13 4 8 6 16 8 20
5 3 -3 30 8 60 24 31 17 57 28 60 26 2 -2 10 2 17 11 7 8 21 15 31 15 11 0 19
4 19 8 0 5 35 26 77 47 43 21 98 53 123 71 25 17 71 47 103 65 89 52 102 60
165 114 33 28 74 74 93 104 19 30 44 66 56 80 21 27 32 64 38 136 2 22 5 40 6
40 1 0 5 33 12 131 2 28 7 56 11 62 3 6 2 13 -2 16 -5 3 -7 63 -5 133 2 70 4
135 4 143 -2 48 -1 397 2 733 1 214 -1 391 -5 393 -5 3 -6 10 -2 15 5 9 15
221 14 304 0 22 -1 45 -1 50 0 6 1 60 1 120 2 145 2 145 -14 151 -8 3 -33 -6
-55 -21 -33 -20 -48 -24 -71 -18 -43 11 -38 25 17 42 68 21 179 94 197 130 9
16 23 34 33 39 11 7 14 16 9 28 -7 18 -9 17 -29 -8 -16 -20 -26 -25 -37 -18
-9 5 -19 5 -27 -2 -25 -20 -24 -39 -20 507 2 231 5 425 8 430 3 6 4 21 3 35
-6 54 -5 210 0 219 4 5 2 12 -3 15 -5 3 -6 21 -2 38 4 18 4 45 0 60 -4 16 -3
30 1 33 5 3 6 20 3 38 -2 17 -4 37 -4 42 1 6 3 26 4 46 2 19 7 40 10 46 4 7 4
14 0 16 -14 9 -4 810 10 824 4 3 1 13 -5 21 -10 11 -9 17 6 27 25 19 30 201 7
260 -20 50 -130 202 -196 273 -65 68 -244 180 -465 290 -106 52 -180 95 -185
107 -6 12 -9 290 -7 733 l3 713 55 24 c69 31 170 117 197 170 27 53 30 176 5
221 -28 52 -125 142 -186 173 -206 104 -623 178 -1187 211 -152 9 -769 11
-950 3z m-125 -132 c7 -3 -42 -24 -60 -26 -8 -1 -37 -4 -65 -8 -27 -4 -66 -10
-85 -13 -68 -10 -300 -12 -306 -3 -3 5 2 10 10 10 17 2 35 5 39 8 4 4 52 12
147 25 77 10 299 15 320 7z m1058 -306 c103 -3 255 -11 337 -19 284 -28 275
-27 275 -47 0 -11 -5 -19 -11 -19 -6 0 -83 -9 -172 -19 -306 -37 -473 -45
-912 -46 -440 0 -606 8 -912 45 -89 11 -167 20 -173 20 -5 0 -10 4 -10 8 0 25
510 62 935 68 204 4 386 10 405 14 19 4 39 5 43 3 4 -3 92 -6 195 -8z m337
-223 c19 -2 19 -2 0 -16 -11 -7 -27 -13 -35 -14 -8 0 -26 -3 -40 -7 -39 -11
-312 -16 -306 -6 8 12 84 29 161 37 33 3 61 6 62 7 2 2 130 1 158 -1z m-2000
-242 c169 -28 677 -70 842 -70 l43 0 0 -378 0 -378 -62 -12 c-80 -15 -96 -32
-97 -110 -1 -104 0 -103 -142 -124 -155 -22 -367 -67 -528 -113 -68 -20 -125
-34 -126 -33 -2 2 -5 279 -7 616 -2 404 0 612 7 612 6 0 37 -5 70 -10z m2275
-583 l0 -594 -105 28 c-86 23 -273 59 -432 85 l-33 5 0 508 0 508 118 7 c135
8 425 36 431 42 2 2 8 4 13 4 4 0 8 -267 8 -593z m-958 265 c6 -6 20 -12 30
-12 13 0 18 -8 18 -27 0 -26 -1 -26 -15 -7 -14 19 -14 19 -30 -3 -13 -18 -22
-21 -53 -16 -20 3 -34 2 -30 -2 4 -4 29 -10 55 -12 50 -5 85 -23 45 -23 -25 0
-30 -15 -7 -23 21 -9 9 -96 -18 -124 l-20 -23 20 0 c24 0 53 -39 53 -73 0 -13
-7 -38 -16 -56 -8 -17 -14 -46 -13 -64 5 -56 1 -57 -162 -57 -148 0 -149 0
-149 23 -1 33 -10 100 -17 117 -18 47 -6 86 33 100 26 10 33 30 10 30 -20 0
-25 11 -32 62 -4 24 -8 45 -10 47 -2 2 1 10 7 18 7 8 8 13 1 13 -13 0 -7 87 8
105 16 19 49 23 172 21 70 -1 112 -6 120 -14z m-49 -3007 c-111 -123 -151
-218 -133 -315 5 -25 9 -48 10 -52 0 -3 36 -45 80 -93 102 -113 121 -152 128
-266 l5 -89 39 81 c57 116 164 218 271 258 l29 11 -19 -23 c-10 -13 -47 -60
-82 -103 -79 -97 -121 -184 -128 -264 -3 -33 -2 -60 2 -60 4 0 28 18 52 41 54
50 115 79 168 79 65 0 72 -13 25 -45 -23 -16 -53 -49 -67 -73 -28 -48 -29 -58
-24 -252 3 -122 -14 -182 -77 -265 -56 -74 -116 -107 -206 -113 -122 -8 -213
34 -256 119 -48 93 1 212 87 212 20 0 38 -13 69 -48 35 -41 45 -47 67 -41 15
3 34 18 43 32 32 49 35 101 12 245 l-21 135 -29 -58 c-22 -43 -56 -82 -130
-150 -101 -94 -132 -137 -141 -196 -6 -38 16 -135 39 -169 19 -31 18 -33 -16
-33 -51 0 -92 24 -147 84 -101 110 -142 246 -121 401 5 38 29 130 54 204 48
146 52 185 29 251 l-15 42 27 -7 c43 -10 81 -43 110 -93 24 -40 28 -58 28
-126 0 -77 0 -78 12 -40 15 51 15 130 0 174 -7 19 -32 64 -56 98 -86 127 -99
189 -57 277 24 52 93 123 184 189 60 43 202 119 209 112 3 -3 -21 -35 -54 -71z
m881 -4687 c3 5 29 9 57 8 l51 -1 3 -40 c6 -89 -21 -96 -485 -130 -113 -8
-332 -15 -487 -16 -261 -2 -284 -1 -303 16 -28 26 -26 69 5 89 18 12 30 14 43
7 10 -5 23 -6 29 -3 18 11 169 2 190 -11 6 -4 14 0 17 9 5 13 9 14 21 4 13
-11 18 -10 28 4 10 14 18 15 39 7 14 -5 29 -7 32 -4 10 11 71 11 84 1 8 -7 16
-7 25 1 7 6 33 9 58 7 24 -1 54 1 66 5 13 5 25 4 28 -1 7 -12 42 -7 56 7 7 7
20 8 34 3 14 -5 27 -4 34 3 6 6 11 8 11 5 0 -4 13 -3 30 2 18 5 32 5 35 -1 4
-5 13 -5 24 0 10 6 23 6 31 1 8 -5 19 -5 25 0 6 5 20 9 30 8 29 -2 111 11 137
21 14 5 28 5 35 -1 7 -5 13 -5 17 0z m866 -363 c0 -66 -26 -138 -40 -115 -21
34 4 170 31 170 5 0 9 -25 9 -55z m-3344 -33 c51 -33 59 -192 10 -192 -21 0
-61 89 -59 132 1 21 -2 40 -8 43 -5 4 -7 11 -4 16 7 11 45 12 61 1z m2040
-157 c27 -27 27 -53 1 -115 -6 -14 -11 -28 -11 -32 -2 -19 -29 -31 -70 -32
-62 -1 -96 31 -96 91 0 54 12 78 48 97 44 24 99 20 128 -9z"/>
<path d="M3430 2030 c0 -5 5 -10 11 -10 5 0 7 5 4 10 -3 6 -8 10 -11 10 -2 0
-4 -4 -4 -10z"/>
<path d="M7592 1949 c-30 -16 -61 -31 -70 -32 -10 -1 -24 -7 -32 -12 -8 -5
-26 -11 -40 -13 -13 -2 -31 -9 -39 -15 -8 -7 -22 -11 -33 -9 -10 2 -18 -1 -18
-7 0 -11 29 -21 65 -23 26 -1 172 82 204 116 31 32 28 32 -37 -5z"/>
</g>
</svg>
