<?xml version="1.0" standalone="no"?>
<!DOCTYPE svg PUBLIC "-//W3C//DTD SVG 20010904//EN"
 "http://www.w3.org/TR/2001/REC-SVG-20010904/DTD/svg10.dtd">
<svg version="1.0" xmlns="http://www.w3.org/2000/svg"
 width="249.000000pt" height="296.000000pt" viewBox="0 0 249.000000 296.000000"
 preserveAspectRatio="xMidYMid meet">

<g transform="translate(0.000000,296.000000) scale(0.100000,-0.100000)"
fill="#000000" stroke="none">
<path d="M286 2900 c-38 -12 -75 -47 -92 -87 -12 -27 -14 -253 -14 -1328 l0
-1295 -65 0 -65 0 0 -90 0 -90 945 0 945 0 0 90 0 90 -65 0 -65 0 0 655 0 655
40 0 40 0 0 -439 0 -439 52 -57 c127 -139 277 -145 405 -17 60 60 86 120 109
255 24 137 15 387 -19 523 -50 195 -140 385 -265 556 -43 57 -88 124 -101 149
-62 112 -93 150 -175 212 l-84 62 -4 245 c-3 223 -5 248 -23 279 -11 19 -33
43 -48 55 -28 21 -34 21 -725 23 -383 1 -710 -2 -726 -7z m1278 -409 c54 -36
55 -45 56 -319 0 -279 -3 -298 -60 -327 -26 -14 -100 -15 -581 -13 l-551 3
-29 33 -29 32 0 261 c0 212 3 265 15 289 31 60 19 59 610 60 517 0 541 -1 569
-19z m310 -440 c3 -5 -8 -14 -24 -21 -42 -17 -37 -30 8 -19 30 7 39 5 50 -8
18 -25 15 -39 -13 -57 -29 -19 -56 -21 -73 -4 -16 16 -16 125 1 131 13 5 43
-8 51 -22z m106 -116 c7 -8 18 -15 25 -15 15 0 118 -138 178 -238 61 -103 122
-251 154 -370 24 -88 27 -115 27 -292 1 -175 -1 -203 -22 -275 -26 -91 -68
-145 -139 -177 -57 -25 -109 -12 -169 44 l-44 41 0 473 0 474 -90 0 -90 0 0
145 0 145 28 0 c15 0 47 14 72 30 52 35 53 35 70 15z m-891 -640 c185 -345
205 -466 98 -583 -50 -53 -98 -79 -163 -87 -147 -20 -288 102 -287 249 0 34 7
84 17 111 45 129 232 484 246 468 5 -4 44 -75 89 -158z"/>
<path d="M1035 2368 c-33 -18 -45 -40 -45 -84 0 -60 14 -84 67 -119 57 -37 68
-54 59 -89 -9 -38 -30 -27 -34 17 -3 37 -4 37 -48 37 -40 0 -44 -2 -44 -24 0
-48 22 -88 56 -102 46 -19 83 -17 121 6 37 22 48 53 40 112 -6 45 -34 79 -89
111 -32 17 -38 26 -38 54 0 23 5 33 15 33 10 0 15 -10 15 -30 0 -29 2 -30 45
-30 43 0 45 1 45 29 0 16 -3 37 -6 46 -15 38 -113 59 -159 33z"/>
<path d="M410 2185 l0 -187 96 4 c126 4 124 1 124 179 0 180 -2 183 -129 187
l-91 4 0 -187z m128 19 c3 -104 -2 -144 -18 -144 -6 0 -10 50 -10 126 0 96 3
125 13 122 8 -3 13 -36 15 -104z"/>
<path d="M670 2185 l0 -185 45 0 45 0 0 185 0 185 -45 0 -45 0 0 -185z"/>
<path d="M800 2185 l0 -185 85 0 85 0 0 35 c0 33 -2 35 -35 35 -35 0 -35 0
-35 45 0 43 1 45 30 45 28 0 30 3 30 35 0 32 -2 35 -30 35 -28 0 -30 3 -30 35
0 32 2 35 30 35 28 0 30 3 30 35 l0 35 -80 0 -80 0 0 -185z"/>
<path d="M1240 2185 l0 -185 80 0 80 0 0 34 c0 32 -3 35 -32 38 -31 3 -33 6
-36 46 -3 41 -2 42 27 42 29 0 31 3 31 34 0 30 -3 35 -27 38 -23 2 -29 8 -31
36 -3 31 -2 32 32 32 34 0 36 2 36 35 l0 35 -80 0 -80 0 0 -185z"/>
<path d="M1430 2185 l0 -185 80 0 80 0 0 35 c0 32 -2 35 -30 35 l-30 0 0 150
0 150 -50 0 -50 0 0 -185z"/>
</g>
</svg>
