<?xml version="1.0" encoding="iso-8859-1"?>
<!-- Uploaded to: SVG Repo, www.svgrepo.com, Generator: SVG Repo Mixer Tools -->
<svg height="800px" width="800px" version="1.1" id="Layer_1" xmlns="http://www.w3.org/2000/svg" xmlns:xlink="http://www.w3.org/1999/xlink" 
	 viewBox="0 0 512 512" xml:space="preserve">
<path style="fill:#782E14;" d="M27.308,125.431c-6.066,19.794-11.029,52.184-11.029,71.977v58.416l43.26,9.596l-2.05-126.719
	L27.308,125.431z"/>
<path style="fill:#5E2916;" d="M136.288,220.689l-21.787-56.922l-57.012-25.066c-4.653,17.021-8.529,43.306-8.529,58.708v65.665
	l65.54,14.539L136.288,220.689z"/>
<polygon style="fill:#DA7A57;" points="8.17,288.505 20.408,427.242 53.089,427.242 62.229,272.968 "/>
<polygon style="fill:#B55C3F;" points="159.586,266.718 40.441,283.861 53.089,427.242 159.586,427.242 "/>
<path style="fill:#913311;" d="M361.299,327.432L248.896,199.556c-19.124,4.721-46.182,2.998-63.041-4.415l-71.353-31.373v113.844
	c22.265,0,53.879,13.783,69.031,30.098l24.56,26.44l162.445,32.681L361.299,327.432z"/>
<path style="fill:#B55C3F;" d="M358.3,314.642l-98.917-118.408l-5.188,1.778c-1.681,0.576-3.455,1.088-5.3,1.544
	c4.436,24.517,16.072,49.619,33.337,71.634c17.155,21.875,38.594,39.079,61.187,49.259l17.88,6.984L358.3,314.642z"/>
<path style="fill:#A94E30;" d="M290.865,185.441l-31.481,10.792c6.824,40.28,34.941,81.82,71.848,105.255
	c8.287,5.262,16.805,9.476,25.314,12.524l1.755,0.63l-9.552-40.743C318.765,254.859,294.328,218.832,290.865,185.441z"/>
<path style="fill:#402318;" d="M446.017,311.354c0,0-58.837-21.08-78.449-28.107c-6.419-2.3-12.73-5.482-18.819-9.349v30.135
	c0,2.231-0.276,4.405-0.782,6.501l78.774,88.393l65.362-4.366V376.82C492.102,349.895,471.364,320.436,446.017,311.354z"/>
<path style="fill:#5E2916;" d="M434.994,342.121l-78.449-28.107c-2.862-1.025-5.724-2.194-8.578-3.478
	c-3.248,13.466-16.346,23.615-31.899,23.615H208.092l46.002,49.525c16.735,18.017,50.354,32.674,74.943,32.674l130.386-17.421
	V376.82C459.421,363.725,447.322,346.537,434.994,342.121z"/>
<polygon style="fill:#FFE280;" points="8.17,252.557 8.17,285.237 40.851,285.237 62.638,268.897 40.851,252.557 "/>
<polygon style="fill:#FFA931;" points="470.06,390.204 448.272,406.544 470.06,422.885 502.74,422.885 502.74,390.204 "/>
<path style="fill:#FFBC2E;" d="M329.035,390.204c-24.589,0-58.208-14.657-74.943-32.674l-70.56-75.964
	c-15.152-16.315-46.765-30.098-69.031-30.098H40.851v32.681h73.65c13.287,0,36.042,9.92,45.085,19.658l70.56,75.966
	c22.83,24.579,65.342,43.114,98.889,43.114h142.114v-32.681L329.035,390.204L329.035,390.204z"/>
<path d="M503.83,382.306h-3.558v-9.572c0-30.164-23.102-62.983-51.5-73.157l-78.45-28.107
	c-32.024-11.474-62.189-47.581-69.831-81.933c10.238,0.002,26.634,0.007,39.07,0.007l12.171-0.002
	c1.884-0.001,3.425-0.001,4.72-0.076l-0.001,0.068c-0.077-0.001-0.155-0.003-0.197-0.007c0.289,0.021,0.576,0.035,0.87,0.035
	c18.987,0,34.433-15.447,34.433-34.434s-15.447-34.433-34.433-34.433c-8.592,0-16.85,3.209-23.252,9.036
	c-0.033,0.029-0.065,0.059-0.097,0.089l-34.738,32.648l0.004-13.971l-0.005-32.147c0-0.147-0.002-0.292-0.008-0.432
	c0.02-0.269,0.031-0.539,0.031-0.814c0-18.986-15.447-34.433-34.433-34.433c-18.988,0-34.434,15.447-34.434,34.433
	c0,8.592,3.209,16.85,9.037,23.252c0.029,0.033,0.06,0.064,0.089,0.096l36.92,39.281l-24.694,8.465
	c-17.191,5.893-45.771,4.692-62.404-2.622l-71.422-31.403c-0.022-0.009-0.041-0.019-0.063-0.027l-87.062-38.28
	c-2.135-0.938-4.571-0.921-6.692,0.051c-2.12,0.972-3.725,2.803-4.409,5.034c-6.279,20.49-11.387,53.853-11.387,74.372v50.249
	c-2.146,0.016-4.198,0.871-5.717,2.39c-1.53,1.532-2.39,3.61-2.39,5.777v32.681c0,0.24,0.011,0.479,0.032,0.718l0.011,0.114
	c0,0.001,0,0.003,0,0.004l12.228,138.619c0.371,4.218,3.904,7.452,8.139,7.452h139.178c4.513,0,8.17-3.658,8.17-8.17v-98.279
	l56.405,60.726c24.212,26.066,69.298,45.723,104.874,45.723H503.83c4.513,0,8.17-3.658,8.17-8.17v-32.681
	C512,385.964,508.343,382.306,503.83,382.306z M443.261,314.961c22.045,7.898,40.67,34.356,40.67,57.774v9.572H329.035
	c-22.24,0-53.819-13.767-68.957-30.064l-13.01-14.007h69c22.526,0,40.851-17.176,40.851-38.287v-16.358
	c2.61,1.212,5.242,2.314,7.892,3.264L443.261,314.961z M340.579,274.169v25.78c0,1.912-0.277,3.767-0.792,5.537
	c-18.801-9.891-36.739-25.076-51.127-43.422c-14.617-18.64-25.176-40.034-30.211-60.957l25.89-8.875
	C291.019,223.475,313.279,255.264,340.579,274.169z M344.916,141.775c3.381-3.058,7.715-4.741,12.21-4.741
	c9.976,0,18.092,8.117,18.092,18.092c0,9.916-8.018,17.995-17.911,18.092c-0.185-0.012-0.37-0.021-0.559-0.024
	c-0.049-0.001-0.099-0.001-0.148-0.001c-0.057,0-0.112,0-0.167,0.001c-0.447,0.003-3.326,0.008-16.871,0.008
	c-8.581,0-19.05-0.002-28.079-0.004L344.916,141.775z M246.536,115.103c0-9.976,8.117-18.092,18.093-18.092
	c9.916,0,17.995,8.019,18.091,17.912c-0.012,0.185-0.022,0.371-0.024,0.56c-0.002,0.105-0.001,0.209,0.001,0.314
	c0.011,1.51,0.009,24.281,0.003,44.95l-31.424-33.435C248.218,123.931,246.536,119.598,246.536,115.103z M32.686,132.635
	l73.645,32.38v54.043c0,4.512,3.657,8.17,8.17,8.17s8.17-3.658,8.17-8.17V172.2l59.894,26.334
	c16.284,7.159,40.239,9.488,60.013,6.498c5.586,23.33,16.961,46.375,33.224,67.113c15.295,19.502,33.622,35.302,53.5,46.259
	c-3.82,2.204-8.362,3.489-13.235,3.489h-84.177l-42.372-45.617c-16.75-18.035-50.403-32.707-75.017-32.707H24.452v-50.246
	C24.45,177.196,28.028,151.531,32.686,132.635z M495.66,414.987H329.035c-31.514,0-71.453-17.412-92.901-40.504l-70.547-75.951
	c-0.01-0.011-0.02-0.021-0.028-0.031c-10.639-11.439-35.442-22.251-51.057-22.251l-40.97-0.001c-4.512,0-8.17,3.658-8.17,8.17
	c0,4.512,3.657,8.17,8.17,8.17l40.969,0.001c10.148,0,28.15,7.473,36.915,14.969v107.427H27.89L17.092,292.589h23.759
	c4.513,0,8.17-3.658,8.17-8.17c0-4.512-3.657-8.17-8.17-8.17H16.34v-16.34h98.16c19.985,0,49.445,12.845,63.045,27.487l70.56,75.966
	c18.378,19.785,53.927,35.283,80.929,35.283H495.66V414.987z"/>
</svg>