<?xml version="1.0" standalone="no"?>
<!DOCTYPE svg PUBLIC "-//W3C//DTD SVG 20010904//EN"
 "http://www.w3.org/TR/2001/REC-SVG-20010904/DTD/svg10.dtd">
<svg version="1.0" xmlns="http://www.w3.org/2000/svg"
 width="260.000000pt" height="303.000000pt" viewBox="0 0 260.000000 303.000000"
 preserveAspectRatio="xMidYMid meet">

<g transform="translate(0.000000,303.000000) scale(0.100000,-0.100000)"
fill="#000000" stroke="none">
<path d="M326 2930 c-38 -12 -75 -47 -92 -87 -12 -27 -14 -253 -14 -1328 l0
-1295 -65 0 -65 0 0 -90 0 -90 945 0 945 0 0 90 0 90 -65 0 -65 0 0 655 0 655
40 0 40 0 0 -439 0 -439 52 -57 c127 -139 277 -145 405 -17 60 60 86 120 109
255 24 137 15 387 -19 523 -50 195 -140 385 -265 556 -43 57 -88 124 -101 149
-62 112 -93 150 -175 212 l-84 62 -4 245 c-3 223 -5 248 -23 279 -11 19 -33
43 -48 55 -28 21 -34 21 -725 23 -383 1 -710 -2 -726 -7z m1278 -409 c54 -36
55 -45 56 -319 0 -279 -3 -298 -60 -327 -26 -14 -100 -15 -581 -13 l-551 3
-29 33 -29 32 0 261 c0 212 3 265 15 289 31 60 19 59 610 60 517 0 541 -1 569
-19z m310 -440 c3 -5 -8 -14 -24 -21 -42 -17 -37 -30 8 -19 30 7 39 5 50 -8
18 -25 15 -39 -13 -57 -29 -19 -56 -21 -73 -4 -16 16 -16 125 1 131 13 5 43
-8 51 -22z m106 -116 c7 -8 18 -15 25 -15 15 0 118 -138 178 -238 61 -103 122
-251 154 -370 24 -88 27 -115 27 -292 1 -175 -1 -203 -22 -275 -26 -91 -68
-145 -139 -177 -57 -25 -109 -12 -169 44 l-44 41 0 473 0 474 -90 0 -90 0 0
145 0 145 28 0 c15 0 47 14 72 30 52 35 53 35 70 15z m-891 -640 c185 -345
205 -466 98 -583 -50 -53 -98 -79 -163 -87 -147 -20 -288 102 -287 249 0 34 7
84 17 111 45 129 232 484 246 468 5 -4 44 -75 89 -158z"/>
<path d="M470 2226 l0 -186 50 0 50 0 0 75 0 75 29 0 c16 0 39 9 52 19 21 17
24 28 24 90 0 96 -10 105 -120 110 l-85 3 0 -186z m128 95 c5 -30 -6 -71 -18
-71 -6 0 -10 23 -10 51 0 36 4 49 13 47 6 -3 13 -15 15 -27z"/>
<path d="M1490 2225 l0 -185 45 0 45 0 0 185 0 185 -45 0 -45 0 0 -185z"/>
<path d="M940 2365 c0 -14 -4 -25 -10 -25 -5 0 -10 -11 -10 -25 0 -14 4 -25 9
-25 4 0 11 -50 14 -112 7 -127 13 -138 79 -138 34 0 38 3 38 25 0 14 -4 25
-10 25 -6 0 -10 40 -10 100 0 60 4 100 10 100 6 0 10 11 10 25 0 14 -4 25 -10
25 -5 0 -10 11 -10 25 0 23 -3 25 -50 25 -47 0 -50 -2 -50 -25z"/>
<path d="M744 2329 c-33 -17 -44 -52 -44 -144 0 -74 3 -87 24 -112 21 -25 31
-28 81 -28 50 0 60 3 81 28 14 16 24 41 24 58 0 28 -2 29 -45 29 -45 0 -45 0
-45 -36 0 -51 -24 -39 -28 14 l-3 42 60 0 61 0 0 49 c0 70 -29 102 -96 107
-27 2 -59 -1 -70 -7z m76 -69 c0 -20 -5 -30 -15 -30 -10 0 -15 10 -15 30 0 20
5 30 15 30 10 0 15 -10 15 -30z"/>
<path d="M1080 2190 l0 -150 45 0 45 0 0 76 c0 83 11 114 40 114 18 0 20 7 20
55 0 59 -8 67 -40 35 l-20 -20 0 20 c0 17 -7 20 -45 20 l-45 0 0 -150z"/>
<path d="M1295 2329 c-39 -23 -45 -40 -45 -140 0 -127 11 -144 99 -144 50 0
65 4 83 23 21 20 23 32 23 122 0 89 -2 102 -22 121 -25 25 -107 36 -138 18z
m73 -120 c3 -80 -3 -119 -18 -119 -6 0 -10 42 -10 101 0 76 3 100 13 97 8 -3
13 -31 15 -79z"/>
</g>
</svg>
