<?xml version="1.0" encoding="utf-8"?>
<svg viewBox="0 0 50 150" fill="none" xmlns="http://www.w3.org/2000/svg" xmlns:bx="https://boxy-svg.com">
    <circle cx="25" cy="125" r="25" fill="#F8F8F8" transform="matrix(0.9999999999999999, 0, 0, 0.9999999999999999, 0, -1.7763568394002505e-15)"/>
    <path d="M12 0C5.383 0 0 5.383 0 12s12 24 12 24 12-18.383 12-24S18.617 0 12 0zm0 17c-2.209 0-4-1.791-4-4s1.791-4 4-4 4 1.791 4 4-1.791 4-4 4z" fill="black" stroke="black" transform="matrix(0.6999999999999999, 0, 0, 0.6999999999999999, 17, 113)"/>
    <path d="M25 50V100.5" stroke="#6B6B6B" stroke-width="2" stroke-dasharray="4 4" transform="matrix(0.9999999999999999, 0, 0, 0.9999999999999999, 0, -1.7763568394002505e-15)"/>
    <circle cx="25" cy="25" r="25" fill="#F8F8F8" transform="matrix(0.9999999999999999, 0, 0, 0.9999999999999999, 0, 1)"/>
    <rect x="18.41" y="22.4" width="12.696" height="13.059" style="fill: #000000; stroke: rgb(0, 0, 0);" transform="matrix(0.9999999999999999, 0, 0, 0.9999999999999999, 0, -1.7763568394002505e-15)"/>
    <rect x="22.944" y="28.93" width="4.172" height="6.348" style="fill: rgb(216, 216, 216); stroke: rgb(0, 0, 0);" transform="matrix(0.9999999999999999, 0, 0, 0.9999999999999999, 0, -1.7763568394002505e-15)"/>
    <path d="M 24.801 7.94 L 34.19 22.269 L 15.145 22.269 L 24.801 7.94 Z" style="fill: #000000; stroke: rgb(0, 0, 0);" transform="matrix(1, 0, 0, 0.7, 0, 10)" bx:shape="triangle 15.145 7.94 19.045 14.329 0.807 0 1@d822a6ff"/>
</svg>