<?xml version="1.0" encoding="utf-8"?>
<svg viewBox="0 0 50 150" fill="none" xmlns="http://www.w3.org/2000/svg" xmlns:bx="https://boxy-svg.com">
    <circle cx="25" cy="125" r="25" fill="#F8F8F8" transform="matrix(0.9999999999999999, 0, 0, 0.9999999999999999, 0, 0)"/>
    <path d="M25 50V100.5" stroke="#6B6B6B" stroke-width="2" stroke-dasharray="4 4" transform="matrix(0.9999999999999999, 0, 0, 0.9999999999999999, 0, 0)"/>
    <circle cx="25" cy="25" r="25" fill="#F8F8F8" transform="matrix(0.9999999999999999, 0, 0, 0.9999999999999999, 0, 0)"/>
    <rect x="18.41" y="22.4" width="12.696" height="13.059" style="fill: #000000; stroke: rgb(0, 0, 0);" transform="matrix(0.9999999999999999, 0, 0, 0.9999999999999999, 0, 0)"/>
    <rect x="22.944" y="28.93" width="4.172" height="6.348" style="fill: rgb(216, 216, 216); stroke: rgb(0, 0, 0);" transform="matrix(0.9999999999999999, 0, 0, 0.9999999999999999, 0, 0)"/>
    <path d="M 24.801 7.94 L 34.19 22.269 L 15.145 22.269 L 24.801 7.94 Z" style="fill: #000000; stroke: rgb(0, 0, 0);" transform="matrix(0.9999999999999999, 0, 0, 0.9999999999999999, 0, 0)" bx:shape="triangle 15.145 7.94 19.045 14.329 0.507 0 1@d822a6ff"/>
    <path d="M 38.543 118.772 L 38.543 138.361 L 26.935 138.361 L 38.543 118.772 Z" style="fill: #000000; stroke: rgb(0, 0, 0);" transform="matrix(0.9999999999999999, 0, 0, 0.9999999999999999, 0, 0)" bx:shape="triangle 26.935 118.772 11.608 19.589 1 0 1@2be81da2"/>
    <path d="M 25.12 118.773 L 25.12 138.362 L 13.512 138.362 L 25.12 118.773 Z" style="fill: #000000; stroke: rgb(0, 0, 0);" transform="matrix(0.9999999999999999, 0, 0, 0.9999999999999999, 0, 0)" bx:shape="triangle 13.512 118.773 11.608 19.589 1 0 1@16f8daec"/>
    <path d="M 32.557 118.684 L 32.557 138.273 L 20.949 138.273 L 32.557 118.684 Z" style="fill: #000000; stroke: rgb(0, , 0);" transform="matrix(0.9999999999999999, 0, 0, 0.9999999999999999, 0, 0)" bx:shape="triangle 20.949 118.684 11.608 19.589 1 0 1@32463ff3"/>
    <rect x="11.335" y="113.782" width="4.897" height="24.486" style="fill: #000000; stroke: rgb(0, 0, 0);" transform="matrix(0.9999999999999999, 0, 0, 0.9999999999999999, 0, 0)"/>
</svg>